<?xml version="1.0" encoding="utf-8"?>
<!-- Generator: Adobe Illustrator 25.4.1, SVG Export Plug-In . SVG Version: 6.00 Build 0)  -->
<svg version="1.1" id="レイヤー_1" xmlns="http://www.w3.org/2000/svg" xmlns:xlink="http://www.w3.org/1999/xlink" x="0px"
	 y="0px" viewBox="0 0 101.7 101.6" style="enable-background:new 0 0 101.7 101.6;" xml:space="preserve">
<style type="text/css">
	.st0{fill:#353636;}
	.st1{fill-rule:evenodd;clip-rule:evenodd;fill:#FFFFFF;}
</style>
<path class="st0" d="M88.7,83l-0.8-0.7c-0.2,0.3-0.3,0.6-0.2,0.9L88.7,83z"/>
<path class="st0" d="M78.6,92l0.2-1c-0.3-0.1-0.6,0-0.8,0.1L78.6,92z"/>
<path class="st0" d="M92,95l-0.2,1c0.3,0.1,0.7,0,0.9-0.3c0.2-0.3,0.3-0.6,0.2-1L92,95z"/>
<path class="st0" d="M87.3,18.1c16.4,18.4,16.3,45.9,0.6,64.2l1.5,1.3c16.4-19.1,16.5-47.7-0.6-66.8L87.3,18.1z"/>
<path class="st0" d="M18.4,14.6c20.2-18.1,51-16.5,69,3.6l1.5-1.3C70.2-4.1,38-5.7,17.1,13.1L18.4,14.6z"/>
<path class="st0" d="M14.3,83.5c-17.9-20-16.1-50.9,4.1-68.9l-1.3-1.5C-3.9,31.9-5.8,64,12.8,84.8L14.3,83.5z"/>
<path class="st0" d="M78,91.1c-20,13.6-47.3,10.7-63.7-7.7l-1.5,1.3c17.1,19.1,45.5,22.1,66.3,8L78,91.1z"/>
<rect x="84.3" y="86.6" transform="matrix(0.2163 -0.9763 0.9763 0.2163 -24.3958 156.5375)" class="st0" width="2" height="13.8"/>
<rect x="89.3" y="82.7" transform="matrix(0.9629 -0.27 0.27 0.9629 -20.6667 27.6983)" class="st0" width="2" height="12.4"/>
<path class="st1" d="M88.7,83c16-18.7,16.2-46.8-0.6-65.5C69.8-3,38.3-4.6,17.7,13.8C-2.8,32.2-4.7,63.7,13.6,84.2
	c16.8,18.7,44.6,21.6,65,7.8L92,95L88.7,83z"/>
</svg>
