<svg id="レイヤー_1" data-name="レイヤー 1" xmlns="http://www.w3.org/2000/svg" viewBox="0 0 394.56 394.53"><defs><style>.cls-1{fill:#a2a2a2;}</style></defs><path class="cls-1" d="M198.07,0C87.76-.25.68,88.79,0,196c-.69,109.31,88,198.6,196.71,198.5,107.76.66,197.24-86.39,197.85-196.13C395.17,89.34,306.86.25,198.07,0Zm-.23,59.33c32.28-.34,59,26.88,58.85,59.21a59.21,59.21,0,1,1-118.42-.4C138.62,83.74,166.81,58.68,197.84,59.33Zm116.43,219a142.78,142.78,0,0,1-104.81,60.56,94.58,94.58,0,0,1-12.72.62c-36.44-.79-68.42-12.95-95.6-37.46a154.84,154.84,0,0,1-20.62-23.31A8.64,8.64,0,0,1,79,271.49c1.76-9.37,7-16.62,14-22.73,13.44-11.75,29.5-18.5,46.23-23.87a215.44,215.44,0,0,1,43.9-9.1c14.93-1.52,29.72-.33,44.41,2.49,19.72,3.78,38.77,9.53,56.49,19.15,10,5.45,19.14,12.07,25.71,21.66a33.21,33.21,0,0,1,5.58,14.8A5.93,5.93,0,0,1,314.27,278.35Z"/></svg>