<svg width="24" height="26" viewBox="0 0 24 26" fill="none" xmlns="http://www.w3.org/2000/svg">
<path d="M20.9425 16.4533C20.8741 16.2189 20.7369 15.7947 20.4884 15.0334C19.6838 12.5405 15.2712 3.79818 15.2712 3.79818C15.15 3.53374 14.949 3.31498 14.6969 3.1734C14.4449 3.03182 14.155 2.97472 13.8688 3.01031L8.41352 3.68568C8.23252 3.70778 8.05942 3.77349 7.90877 3.87729C7.75813 3.98109 7.63435 4.11993 7.54785 4.28215C7.54785 4.28215 6.91483 5.32978 6.64856 5.97898C6.38229 6.62818 6.10945 7.61876 6.64856 8C7.18767 8.38124 9.87515 9.88307 10.3636 9.66667C11.1775 9.303 11.5829 8 11.5829 8H12.4211L12.8182 9.66667C12.8182 9.66667 13.2273 11.3333 13.8483 14.053C13.5109 14.1702 13.1569 13.7405 12.4211 13.0428C10.1375 10.8788 7.27617 11.728 6.00588 13.6225C5.67237 13.3366 4.42719 13.1874 3 13.0428V23C5.42696 22.7117 6.51291 21.0344 6.51291 21.0344C7.84117 21.3024 9.88941 21.1215 11.5829 20.8321C14.7132 20.2973 16.79 19.0743 16.79 19.0743L20.2322 17.8986C20.5152 17.8009 20.7485 17.5943 20.8816 17.3237C21.0146 17.053 21.0365 16.7402 20.9425 16.4533Z" stroke="#9E9E9E" stroke-width="2"/>
</svg>
