<svg width="20" height="20" viewBox="0 0 20 20" fill="none" xmlns="http://www.w3.org/2000/svg">
<path d="M18.4256 14.3542H1.57439C1.15684 14.3542 0.756385 14.502 0.461129 14.7651C0.165873 15.0282 0 15.385 0 15.7571C0 16.1292 0.165873 16.486 0.461129 16.7491C0.756385 17.0122 1.15684 17.16 1.57439 17.16H18.4256C18.8432 17.16 19.2436 17.0122 19.5389 16.7491C19.8341 16.486 20 16.1292 20 15.7571C20 15.385 19.8341 15.0282 19.5389 14.7651C19.2436 14.502 18.8432 14.3542 18.4256 14.3542V14.3542Z" fill="#9E9E9E"/>
<path d="M17.4491 13.3114C17.0707 12.7529 16.8703 12.1131 16.8694 11.4607V8.38321C16.8688 6.90933 16.271 5.48519 15.1861 4.37267C14.1011 3.26014 12.6018 2.53403 10.964 2.32784C11.2135 2.07424 11.3505 1.7483 11.3496 1.41108C11.3511 1.18049 11.2888 0.953124 11.1682 0.749101C11.0476 0.545077 10.8724 0.370689 10.6582 0.24137C10.4439 0.11205 10.1972 0.0317877 9.93981 0.00768486C9.68244 -0.016418 9.42237 0.0163822 9.18261 0.103183C8.94286 0.189983 8.73081 0.328107 8.56524 0.505331C8.39967 0.682555 8.28568 0.893414 8.23336 1.11925C8.18104 1.34508 8.19201 1.57892 8.26528 1.80008C8.33856 2.02123 8.47189 2.22289 8.65347 2.38719C7.09625 2.66221 5.69448 3.41039 4.68752 4.50396C3.68057 5.59753 3.13089 6.96867 3.13236 8.38321V11.4607C3.13098 12.1132 2.92995 12.7531 2.55089 13.3114L2.48779 13.4055H17.5109L17.4491 13.3114Z" fill="#9E9E9E"/>
<path d="M7.63394 18.39C7.72041 18.8405 7.98288 19.2492 8.37492 19.5438C8.76697 19.8385 9.26333 20.0001 9.77622 20.0001C10.2891 20.0001 10.7855 19.8385 11.1775 19.5438C11.5696 19.2492 11.832 18.8405 11.9185 18.39L11.9325 18.3174H7.61816L7.63394 18.39Z" fill="#9E9E9E"/>
</svg>
