<svg width="20" height="22" viewBox="0 0 20 22" fill="none" xmlns="http://www.w3.org/2000/svg">
<path d="M18.4256 15.0791H1.57439C1.15684 15.0791 0.756385 15.2344 0.461129 15.5107C0.165873 15.7871 0 16.1619 0 16.5528C0 16.9436 0.165873 17.3185 0.461129 17.5948C0.756385 17.8712 1.15684 18.0265 1.57439 18.0265H18.4256C18.8432 18.0265 19.2436 17.8712 19.5389 17.5948C19.8341 17.3185 20 16.9436 20 16.5528C20 16.1619 19.8341 15.7871 19.5389 15.5107C19.2436 15.2344 18.8432 15.0791 18.4256 15.0791V15.0791Z" fill="#9E9E9E"/>
<path d="M17.4496 13.9835C17.0712 13.3968 16.8707 12.7247 16.8699 12.0393V8.80649C16.8693 7.25819 16.2715 5.76214 15.1865 4.59345C14.1016 3.42475 12.6023 2.66197 10.9645 2.44538C11.2139 2.17897 11.351 1.83657 11.3501 1.48233C11.3516 1.2401 11.2893 1.00125 11.1687 0.786923C11.0481 0.572598 10.8729 0.389405 10.6587 0.253557C10.4444 0.117708 10.1977 0.0333927 9.9403 0.00807288C9.68293 -0.0172469 9.42285 0.0172094 9.1831 0.108393C8.94334 0.199576 8.7313 0.344674 8.56573 0.530846C8.40016 0.717018 8.28617 0.938523 8.23385 1.17576C8.18153 1.41299 8.1925 1.65864 8.26577 1.89096C8.33905 2.12329 8.47238 2.33512 8.65396 2.50772C7.09674 2.79663 5.69497 3.58258 4.68801 4.73137C3.68106 5.88016 3.13138 7.32052 3.13285 8.80649V12.0393C3.13147 12.7248 2.93043 13.397 2.55138 13.9835L2.48828 14.0823H17.5114L17.4496 13.9835Z" fill="#9E9E9E"/>
<path d="M7.63394 19.3185C7.72041 19.7917 7.98288 20.221 8.37492 20.5306C8.76697 20.8401 9.26333 21.0099 9.77622 21.0099C10.2891 21.0099 10.7855 20.8401 11.1775 20.5306C11.5696 20.221 11.832 19.7917 11.9185 19.3185L11.9325 19.2422H7.61816L7.63394 19.3185Z" fill="#9E9E9E"/>
</svg>
