<svg width="13" height="16" viewBox="0 0 13 16" fill="none" xmlns="http://www.w3.org/2000/svg">
<path d="M6.02427 14.4053H6.94727V16H6.02427V14.4053Z" fill="#FF5948"/>
<path d="M0.00626373 6.11087C-0.153966 2.37847 2.78 0 6.49972 0C10.22 0 13.1534 2.37847 12.9938 6.11087C12.8271 9.99575 9.52371 12.4052 7.33933 12.9382L7.95558 13.8858H5.04447L5.66076 12.9382C3.47634 12.4054 0.172912 9.996 0.00626373 6.11087ZM8.00584 3.0408C8.27131 3.1699 8.51276 3.32727 8.72559 3.51119C9.19449 3.91654 9.52544 4.43224 9.70553 5.05974C9.78211 5.3277 10.1049 5.49312 10.4265 5.42928C10.748 5.36546 10.9468 5.09627 10.8702 4.82833C10.6487 4.05052 10.2177 3.36214 9.58745 2.81814C9.29748 2.56774 8.96769 2.35335 8.60929 2.17894C8.32339 2.04011 7.95679 2.12047 7.79014 2.35845C7.6235 2.5965 7.71998 2.90197 8.00584 3.0408Z" fill="#FF5948"/>
</svg>
