<svg width="227" height="100" viewBox="0 0 227 100" fill="none" xmlns="http://www.w3.org/2000/svg">
<g clip-path="url(#clip0)">
<path d="M3.18851 -0.0493622C26.8551 5.19016 38.5638 7.58538 62.0311 7.13628C63.7872 18.0439 63.7872 29.1628 62.0311 40.0704C48.2872 42.8647 34.1082 42.7117 20.4277 39.6214C19.9793 43.813 19.78 51.298 19.78 51.298C27.0916 53.8141 34.8931 54.5663 42.5498 53.4936C42.8062 57.9635 42.5722 62.448 41.8521 66.8668C34.4291 69.7515 26.179 69.6442 18.8333 66.5674C17.3499 77.1672 17.1659 87.9089 18.2853 98.5535C13.918 100.291 9.07238 100.397 4.6333 98.8529C-0.928164 66.1565 -1.41543 32.796 3.18851 -0.0493622Z" fill="#F9A11B"/>
<path d="M49.5753 55.2893C47.1463 69.6414 47.1463 84.3006 49.5753 98.6526C53.6904 97.9668 57.9096 98.2747 61.8819 99.5508C62.7788 94.1117 63.4762 75.5988 63.4762 75.5988C66.2995 74.4267 69.3541 73.9205 72.4038 74.1195C75.4535 74.3185 78.4167 75.2174 81.0642 76.7465C82.3098 72.8543 84.8509 63.1737 84.8509 63.1737C84.8509 63.1737 72.5443 57.3353 64.2734 61.8762C64.2734 60.2295 65.0706 56.1377 65.0706 56.1377C62.6846 54.9377 60.0772 54.2431 57.4112 54.0971C54.7451 53.9512 52.0778 54.357 49.5753 55.2893Z" fill="#F9A11B"/>
<path d="M96.2607 60.3294C101.819 60.3294 106.325 55.8165 106.325 50.2495C106.325 44.6826 101.819 40.1697 96.2607 40.1697C90.7023 40.1697 86.1962 44.6826 86.1962 50.2495C86.1962 55.8165 90.7023 60.3294 96.2607 60.3294Z" fill="#FF5948"/>
<path d="M108.069 13.6726C110.394 42.374 114.286 70.9264 119.728 99.2016C147.181 97.7545 159.588 88.3732 160.235 64.6706C160.235 41.9661 135.323 32.3352 126.604 55.3891C126.604 42.3652 128.547 19.511 133.28 10.8782C124.013 6.38722 110.56 9.28142 108.069 13.6726Z" fill="#F9A11B"/>
<path d="M151.132 71.8092C153.89 71.4627 155.581 66.8371 154.91 61.4775C154.239 56.118 151.459 52.0539 148.701 52.4004C145.944 52.7468 144.253 57.3726 144.924 62.7321C145.595 68.0917 148.375 72.1556 151.132 71.8092Z" fill="#FCFDFD"/>
<path d="M96.0614 99.7505C88.7871 99.7505 81.5625 100 79.5197 99.7505C80.1674 98.3034 88.2888 66.2175 89.9828 62.4251C91.9681 62.9285 94.0148 63.147 96.0614 63.0738C98.0917 63.1498 100.122 62.9313 102.09 62.4251C103.784 66.2175 112.055 98.3034 112.603 99.7505C110.56 99.7505 103.336 99.7505 96.0614 99.7505Z" fill="#FF5948"/>
<path d="M226.95 52.8941C227.299 56.6865 222.316 60.3791 221.968 63.9719C221.619 67.5648 225.605 72.5049 224.459 75.8482C223.313 79.1915 217.135 80.8383 215.142 83.5828C213.149 86.3273 213.797 92.964 210.857 94.9101C207.917 96.8562 202.636 93.7624 198.899 94.1117C195.162 94.461 190.778 98.5528 187.29 97.0558C183.802 95.5588 183.752 89.4711 181.012 86.7266C178.272 83.9821 172.343 84.2314 170.449 80.8382C168.556 77.445 171.844 72.3552 170.748 68.6626C169.652 64.97 164.122 62.5249 163.773 58.6825C163.424 54.8402 168.406 51.1476 168.755 47.6047C169.104 44.0618 165.118 39.0718 166.264 35.6786C167.41 32.2854 173.588 30.6885 175.581 27.944C177.574 25.1995 176.926 18.6127 179.866 16.6167C182.806 14.6207 188.087 17.8144 191.824 17.4651C195.561 17.1158 199.945 12.974 203.433 14.471C206.921 15.968 206.971 22.0558 209.711 24.8502C212.451 27.6446 218.38 27.3453 220.274 30.6886C222.167 34.0319 218.929 39.1716 220.274 42.8643C221.619 46.5569 226.601 49.0518 226.95 52.8941Z" fill="#F9A11B"/>
<path d="M172.143 56.7366L194.415 40.0699C194.415 40.0699 204.529 66.4671 172.143 56.7366Z" fill="#FCFDFD"/>
</g>
<defs>
<clipPath id="clip0">
<rect width="227" height="100" fill="white"/>
</clipPath>
</defs>
</svg>
